<svg version="1.0" xmlns="http://www.w3.org/2000/svg" viewBox="0 0 296 296"><path d="M30.1 42.4c-5.2 1.9-10.9 7.2-12.1 11.4-.8 2.5-1 24.6-.8 70.3l.3 66.6 2.8 3.6c3.8 4.9 9.8 7.9 17.4 8.5 3.5.2 6.3.5 6.3.6 0 .1-6.5 12.3-14.4 27.2-7.9 14.8-14.2 27-14.1 27.2.2.2 17.6-12.1 38.7-27.2L92.7 203h85.9c54.5 0 87.2-.4 89.5-1 4.6-1.3 9.6-4.7 12.3-8.3 2.1-2.8 2.1-3.6 2.4-70.5.2-48.9-.1-68.4-.9-70.4-1.6-4-8.1-9.5-12.6-10.7-5.8-1.6-234.7-1.4-239.2.3zM271.9 46c2.4 1.4 5.4 3.8 6.5 5.3 2.1 2.8 2.1 3.5 2.1 70.5v67.7l-2.3 3.2c-1.2 1.7-4.3 4.2-7 5.5l-4.7 2.3-88 .5-88 .5-33.9 24.3c-18.6 13.4-33.9 24.2-34.1 24-.1-.2 5.5-11.1 12.5-24.3l12.8-24-7.6-.8c-10.4-1-16-3.9-19-9.7l-2.2-4.5.2-66 .3-66 2.3-3.3c2.5-3.4 6.7-6 11.7-7.3 1.7-.4 55-.6 118.5-.6l115.5.2 4.4 2.5z"/><path d="M71.5 59.4c-4.9.7-10 1.6-11.3 2-4.8 1.6-4.9 9.3-.1 12.8 1.9 1.5 3.5 4.2 5 8.6 4.1 12.3 9.7 25.4 12 27.8 4.4 4.7 12.1 6.8 25.4 6.8 10.1 0 12.9-.3 17.6-2.2 10.7-4.3 18.8-13.6 23.3-26.9 3.2-9.4 4.3-11.3 6.6-11.3s3.3 1.7 6.4 11c4.6 13.4 12.8 22.9 23.5 27.2 7.5 3 25.8 3.2 33.8.5 9.9-3.4 11.3-5.4 18.8-26.2 3.5-9.7 5.4-13.6 7.4-15.2 3.2-2.5 4.6-7.5 3.1-10.3-1.2-2.3-5.5-3.5-17.5-4.9-18.1-2.2-37.7-.7-56.5 4.3-13 3.5-25.1 3.5-37.5.1-18.4-5.1-41.1-6.6-60-4.1zM93.2 160.4c23.4 22.6 47.1 31.4 69.7 26.1 8.4-2 20.8-8 29.6-14.2 6.9-4.9 22.9-19.2 22.2-19.9-.2-.2-5.2 1.7-11.3 4.2-6 2.5-17 6.2-24.4 8.1-12.6 3.4-14.5 3.6-28.5 3.6-13.6 0-16.1-.2-26.7-3.1-6.5-1.7-17.5-5.3-24.4-8.1-7-2.8-13.2-5.1-13.8-5.1-.6.1 2.8 3.8 7.6 8.4z"/></svg>