<svg version="1.0" xmlns="http://www.w3.org/2000/svg" viewBox="0 0 296 296"><path d="M32 41.9c-5 1.6-9 4.2-11.7 7.8l-2.8 3.6-.2 67.6-.3 67.6 2.3 4c3.2 5.7 9.8 9.4 18 10.2 4.3.4 6.6 1 6.4 1.7-.3.6-6.6 12.6-14 26.6-7.5 14-13.4 25.6-13.2 25.8.2.2 17.1-11.7 37.7-26.5l37.3-26.8 88.5-.5 88.5-.5 4.7-2.8c2.6-1.5 5.7-4.2 7-6l2.3-3.2V53.3l-2.8-3.6c-1.6-2.1-4.7-4.7-7-6l-4.2-2.2-117-.2c-64.3-.1-118.1.2-119.5.6zM268.2 44c2.1.6 5.1 2.2 6.8 3.7 6.3 5.2 6 1.9 6 74.6v66.4l-2.3 3.4c-1.2 1.9-4.3 4.5-6.7 5.9l-4.5 2.5-88 .3-87.9.2-34.8 25C37.7 239.7 22 250.6 22 250.2c.1-.4 5.8-11.5 12.8-24.7l12.8-24-7.7-.6c-8.6-.7-14.8-3.5-18.3-8.2-2.1-2.8-2.1-3.7-2.4-69.8-.3-73.9-.6-70.3 6-75.2 1.8-1.4 4.7-2.9 6.3-3.5 4.1-1.4 231.5-1.6 236.7-.2z"/><path d="M80 58.7c-11.9 1.1-20.3 2.7-21.5 4-2.6 2.6-1.9 8.2 1.6 11.3 2.2 2.1 4.2 6.3 7.4 15.1 8.1 22.3 10.1 24.7 23.1 27.4 16.5 3.5 30.4.6 40.9-8.7 4.4-3.9 9.3-12.6 14.2-25.3 3.1-8.2 7.1-7.3 9.8 2.3 7.1 24.5 24.7 36 49.7 32.4 10.1-1.5 16.2-4.3 19.3-9.1 1.3-2 4.7-9.9 7.5-17.6 3.5-9.5 5.9-14.6 7.6-16 3-2.5 4.4-7.2 3.1-10.2-1.1-2.6-1.8-2.9-10.7-4.2-20.4-3.2-41-2.1-61 3.1-15.9 4.1-26.2 4.1-42.1 0-16.2-4.3-34.4-6-48.9-4.5zM93.5 160.6c14.8 14 28.9 22.4 43.7 25.9 22.1 5.2 47.4-4.7 71.5-28 6.8-6.5 6.8-6.6 2.8-4.9-47.6 19.4-71.2 20.1-112.6 3.5-7-2.8-13.1-5.1-13.5-5.1-.5.1 3.2 3.9 8.1 8.6z"/></svg>